<svg xmlns="http://www.w3.org/2000/svg" viewBox="0 0 512 512"><title>Notebook</title><g id="Notebook"><g id="Notebook-2" data-name="Notebook"><path d="M255.9976,61.6773c-107.3251,0-194.32,87-194.32,194.32,0,107.3155,87.0048,194.3251,194.32,194.3251s194.3251-87.01,194.3251-194.3251C450.3227,148.6773,363.3131,61.6773,255.9976,61.6773ZM154.0917,270.7778V163.6446a16.9206,16.9206,0,0,1,16.9171-16.9171H340.9816a16.9186,16.9186,0,0,1,16.9219,16.9171V270.7778a16.8548,16.8548,0,0,1-3.0374,9.6326l23.9721,34.5658H133.1666l23.9673-34.5572A16.7886,16.7886,0,0,1,154.0917,270.7778ZM378.8478,349.1h-245.7V328.9394h245.7Z"/><rect x="178.2693" y="170.8917" width="155.4662" height="92.6342"/></g></g></svg>