<?xml version="1.0" encoding="utf-8"?><!-- Uploaded to: SVG Repo, www.svgrepo.com, Generator: SVG Repo Mixer Tools -->
<svg width="100px" height="100px" viewBox="0 0 24 24" fill="none" xmlns="http://www.w3.org/2000/svg">
<path d="M10 18H14M7.20003 3H16.8C17.9201 3 18.4802 3 18.908 3.21799C19.2843 3.40973 19.5903 3.71569 19.782 4.09202C20 4.51984 20 5.0799 20 6.2V11.8C20 12.9201 20 13.4802 19.782 13.908C19.5903 14.2843 19.2843 14.5903 18.908 14.782C18.4802 15 17.9201 15 16.8 15H7.20003C6.07992 15 5.51987 15 5.09205 14.782C4.71572 14.5903 4.40976 14.2843 4.21801 13.908C4.00003 13.4802 4.00003 12.9201 4.00003 11.8V6.2C4.00003 5.0799 4.00003 4.51984 4.21801 4.09202C4.40976 3.71569 4.71572 3.40973 5.09205 3.21799C5.51987 3 6.07992 3 7.20003 3ZM4.58888 21H19.4112C20.2684 21 20.697 21 20.9551 20.8195C21.1805 20.6618 21.3311 20.4183 21.3713 20.1462C21.4173 19.8345 21.2256 19.4512 20.8423 18.6845L20.3267 17.6534C19.8451 16.6902 19.6043 16.2086 19.2451 15.8567C18.9274 15.5456 18.5445 15.309 18.1241 15.164C17.6488 15 17.1103 15 16.0335 15H7.96659C6.88972 15 6.35128 15 5.87592 15.164C5.45554 15.309 5.07266 15.5456 4.75497 15.8567C4.39573 16.2086 4.15493 16.6902 3.67334 17.6534L3.1578 18.6845C2.77444 19.4512 2.58276 19.8345 2.6288 20.1462C2.669 20.4183 2.81952 20.6618 3.04492 20.8195C3.30306 21 3.73166 21 4.58888 21Z" stroke="#000000" stroke-width="2" stroke-linecap="round" stroke-linejoin="round"/>
</svg>
