<svg xmlns="http://www.w3.org/2000/svg" viewBox="0 0 512 512"><title>Smart_Phone02</title><g id="Smart_Phone_02" data-name="Smart Phone 02"><g id="Smart_Phone_02-2" data-name="Smart Phone 02"><rect x="232.0941" y="139.2933" width="47.8118" height="13.439"/><rect x="239.7818" y="356.9243" width="32.4374" height="13.439"/><rect x="197.8566" y="167.7976" width="116.2877" height="172.561"/><path d="M256,61.6773c-107.32,0-194.3251,87.0048-194.3251,194.32S148.68,450.3227,256,450.3227c107.3155,0,194.3251-87.01,194.3251-194.3251S363.3155,61.6773,256,61.6773Zm77.9251,299.7984c0,13.4342-14.184,24.3283-31.6637,24.3283H209.7443c-17.4893,0-31.6694-10.8941-31.6694-24.3283V150.5147c0-13.4342,14.18-24.3235,31.6694-24.3235h92.5171c17.48,0,31.6637,10.8893,31.6637,24.3235Z"/></g></g></svg>